<?xml version="1.0" encoding="UTF-8"?>
<svg width="141px" height="82px" viewBox="0 0 141 82" version="1.1" xmlns="http://www.w3.org/2000/svg" xmlns:xlink="http://www.w3.org/1999/xlink">
    <title>binoculars</title>
    <defs>
        <linearGradient x1="44.5500376%" y1="29.5953592%" x2="43.7477306%" y2="65.49216%" id="linearGradient-1">
            <stop stop-color="#00FF23" offset="0%"></stop>
            <stop stop-color="#00E6D8" offset="100%"></stop>
        </linearGradient>
    </defs>
    <g id="Symbols" stroke="none" stroke-width="1" fill="none" fill-rule="evenodd">
        <g id="icon/visible" transform="translate(1.000000, -27.000000)" fill-rule="nonzero" stroke="url(#linearGradient-1)">
            <g id="binoculars" transform="translate(-0.124187, 27.370629)">
                <path d="M129.785068,27.3419588 C129.014068,26.599514 128.185956,25.8856247 127.329289,25.200291 L115.621505,15.2629525 C111.109725,12.0647286 105.741278,10.037283 99.9159414,9.63750506 L93.4338268,3.12683498 L93.3767157,3.12683498 C91.4063813,1.32783403 88.7507133,0.214166779 85.8666006,0.214166779 C80.8979314,0.214166779 76.7002625,3.44094625 75.272484,7.92417083 C73.8447054,7.01039257 72.1884824,6.46783673 70.3894814,6.35361445 C70.1039257,6.32505888 69.7898144,6.32505888 69.5042587,6.32505888 C67.4768132,6.32505888 65.5921456,6.92472586 63.9930336,7.92417083 C62.5366995,3.46950182 58.3390306,0.24272235 53.3989169,0.24272235 C50.5148043,0.24272235 47.8876918,1.32783403 45.8888019,3.15539055 L45.8316907,3.15539055 L39.3495762,9.66606063 C33.5242398,10.0658386 28.127237,12.1218397 23.6440124,15.291508 L11.9362285,25.2288466 C11.0795614,25.8856247 10.2514498,26.599514 9.48044942,27.3705144 C3.62655746,33.0245173 0,40.9344104 0,49.7009705 C0,66.8343129 13.9351184,80.7694313 31.0684608,80.7694313 C46.8882468,80.7694313 59.9952537,68.8617584 61.8799214,53.527417 C64.164367,54.8409732 66.8200351,55.5834181 69.618481,55.5834181 C72.4454825,55.5834181 75.072595,54.8409732 77.3570406,53.527417 C79.2702638,68.8332028 92.3487152,80.7408757 108.168501,80.7408757 C125.301844,80.7408757 139.236962,66.8057573 139.236962,49.672415 C139.265518,40.9058548 135.63896,32.9959618 129.785068,27.3419588 Z M31.0684608,70.8892039 C19.3606768,70.8892039 9.88022741,61.4087545 9.88022741,49.7009705 C9.88022741,37.9931866 19.3606768,28.5127372 31.0684608,28.5127372 C42.7762447,28.5127372 52.2567583,37.9931866 52.2567583,49.7009705 C52.2852497,61.3801989 42.7762447,70.8892039 31.0684608,70.8892039 Z M69.6470366,46.7883023 C65.8491457,46.7883023 62.7651441,43.7043007 62.7651441,39.9064098 C62.7651441,36.108519 65.8491457,33.0245173 69.6470366,33.0245173 C73.4449275,33.0245173 76.5289291,36.108519 76.5289291,39.9064098 C76.5289291,43.7043007 73.4449275,46.7883023 69.6470366,46.7883023 Z M108.225612,70.8892039 C96.5178285,70.8892039 87.037379,61.4087545 87.037379,49.7009705 C87.037379,37.9931866 96.5178285,28.5127372 108.225612,28.5127372 C119.933396,28.5127372 129.413846,37.9931866 129.413846,49.7009705 C129.413846,61.3801989 119.933396,70.8892039 108.225612,70.8892039 Z" id="XMLID_1738_"></path>
            </g>
        </g>
    </g>
</svg>