<?xml version="1.0" encoding="UTF-8"?>
<svg width="64px" height="64px" viewBox="0 0 64 64" version="1.1" xmlns="http://www.w3.org/2000/svg" xmlns:xlink="http://www.w3.org/1999/xlink">
    <title>Group</title>
    <g id="Symbols" stroke="none" stroke-width="1" fill="none" fill-rule="evenodd">
        <g id="product/idle/empty-state-1" transform="translate(-50.000000, -50.000000)">
            <g id="feather-camera" transform="translate(50.000000, 50.000000)">
                <g id="Icon" transform="translate(2.660833, 7.982500)" stroke="#FFFFFF" stroke-linecap="round" stroke-linejoin="round">
                    <g id="Icon-Group">
                        <path d="M58.5383333,42.5733333 C58.5383333,45.5124087 56.155742,47.895 53.2166667,47.895 L5.32166667,47.895 C2.38259132,47.895 0,45.5124087 0,42.5733333 L0,13.3041667 C0,10.3650913 2.38259132,7.9825 5.32166667,7.9825 L11.1681145,7.9825 C14.164943,7.9825 16.963492,6.48476207 18.6258333,3.99125 C20.2881747,1.49773793 23.0867236,2.32686531e-15 26.0835522,0 L32.4547812,0 C35.4516097,-5.50508472e-16 38.2501586,1.49773793 39.9125,3.99125 C41.5748414,6.48476207 44.3733903,7.9825 47.3702188,7.9825 L53.2166667,7.9825 L53.2166667,7.9825 C56.155742,7.9825 58.5383333,10.3650913 58.5383333,13.3041667 L58.5383333,42.5733333 Z" id="Icon-Path"></path>
                        <circle id="Icon-Oval" cx="29.2691667" cy="26.6083333" r="10.6433333"></circle>
                    </g>
                </g>
                <rect id="ViewBox" fill-rule="nonzero" x="0" y="0" width="63.86" height="63.86"></rect>
            </g>
        </g>
    </g>
</svg>