<?xml version="1.0" encoding="UTF-8"?>
<svg width="90px" height="91px" viewBox="0 0 90 91" version="1.1" xmlns="http://www.w3.org/2000/svg" xmlns:xlink="http://www.w3.org/1999/xlink">
    <title>icon/ice-skate/white</title>
    <g id="Symbols" stroke="none" stroke-width="1" fill="none" fill-rule="evenodd">
        <g id="Group-16" transform="translate(1.129841, 1.906073)">
            <g id="icon/ice-skate/black" stroke="#FFFFFF" stroke-width="2">
                <path d="M9.89328261,75.2362072 C10.5461087,75.2362072 11.0743043,74.6605333 11.0743043,73.9483593 L11.0743043,71.5091637 L5.79828261,71.5091637 C4.86058696,71.5091637 4.095,70.6723593 4.095,69.645642 L4.095,41.4791637 C4.095,35.1823593 5.57869565,28.9449028 8.38584783,23.4433593 C9.9645,20.3454028 11.0802391,17.010055 11.6974565,13.5263376 L13.1396087,5.34820717 C13.2761087,4.5529463 13.8755217,3.94759848 14.6114348,3.85264195 L44.3921739,0.0128376062 C45.2230435,-0.0939884808 46.0064348,0.47575065 46.2319565,1.35409848 L47.8699565,7.68057674 C47.8699565,7.68651152 47.8758913,7.6924463 47.8758913,7.69838108 L50.3625652,17.3067941 C50.3625652,17.3127289 50.3625652,17.3127289 50.3625652,17.3186637 L50.3685,17.336468 C53.0035435,27.5086854 60.0184565,35.7046202 69.1402174,39.259555 L74.309413,41.2714463 C82.0958478,44.3041202 87.3243913,52.4050985 87.3243913,61.4319028 C87.3243913,61.4319028 87.3243913,61.4378376 87.3243913,61.4437724 C87.3243913,61.4437724 87.3243913,61.4497072 87.3243913,61.4497072 C87.3243913,64.9334246 85.6982609,68.007642 83.2234565,69.8177506 L83.2234565,79.3252724 C83.2234565,79.8237941 83.045413,80.292642 82.7249348,80.6427941 C82.4044565,80.9929463 81.9712174,81.1887941 81.5201739,81.1887941 L79.7397391,81.1887941 L79.7397391,82.6843593 C79.7397391,83.7110767 78.9741522,84.5478811 78.0364565,84.5478811 L76.250087,84.5478811 L76.250087,86.0375115 C76.250087,87.0642289 75.4904348,87.9010333 74.5468043,87.9010333 L1.70921739,87.9010333 C0.765586957,87.9010333 7.10542736e-14,87.0642289 7.10542736e-14,86.0375115 C7.10542736e-14,80.0789898 4.43921739,75.2362072 9.89328261,75.2362072 L9.89328261,75.2362072 Z" id="Path"></path>
                <path d="M61.4843478,76.5091637 L61.4843478,78.9483593 C61.4843478,79.6605333 62.0184783,80.2362072 62.6653696,80.2362072 L67.4903478,80.2362072 C68.6535652,80.2362072 69.7218261,79.6605333 70.4280652,78.6516202 C70.8672391,78.0165985 71.1224348,77.2747506 71.1758478,76.5091637 L61.4843478,76.5091637 Z" id="Path"></path>
                <path d="M51.2527826,76.3266637 C47.2468043,75.3711637 43.4485435,73.4186202 40.214087,70.6055333 L32.979587,64.3146637 C31.7570217,63.2523376 30.3089348,62.5520333 28.7777609,62.2612289 L28.7777609,75.145642 C28.7777609,76.1723593 28.0181087,77.0091637 27.0744783,77.0091637 L21.3058696,77.0091637 L21.3058696,79.4483593 C21.3058696,80.1605333 21.8340652,80.7362072 22.4868913,80.7362072 L50.0717609,80.7362072 C50.724587,80.7362072 51.2527826,80.1605333 51.2527826,79.4483593 L51.2527826,76.3266637 Z" id="Path"></path>
                <path d="M36.2793261,1.68948543 C38.9715803,22.00898 45.2011238,35.7215034 54.9679565,42.8270556 C64.7347892,49.9326078 73.8688566,51.3867511 82.3701587,47.1894854" id="Path-9"></path>
                <path d="M3.63802174,50.5916126 L19.526691,50.5916126 C24.0590252,50.5916295 28.4987155,51.8750279 32.3321631,54.2930297 C34.550692,55.6926358 36.4915434,57.1795095 38.1547174,58.7536506 C42.985037,63.3253941 44.3647876,67.3335284 52.2438913,69.498718 C57.4966271,70.9421778 68.0229532,70.9421778 83.8228696,69.498718" id="Path-10"></path>
            </g>
            <circle id="Oval" fill="#FFFFFF" cx="42.6201587" cy="7.63015926" r="1.44067383"></circle>
            <circle id="Oval" fill="#FFFFFF" cx="44.0608325" cy="14.9783038" r="1.44067383"></circle>
            <circle id="Oval" fill="#FFFFFF" cx="46.9421802" cy="21.5027179" r="1.44067383"></circle>
            <circle id="Oval" fill="#FFFFFF" cx="49.8235278" cy="28.0271319" r="1.44067383"></circle>
            <circle id="Oval" fill="#FFFFFF" cx="53.4211841" cy="33.7058429" r="1.44067383"></circle>
            <circle id="Oval-Copy-9" fill="#FFFFFF" cx="58.1257739" cy="38.4143389" r="1.44067383"></circle>
            <circle id="Oval-Copy-10" fill="#FFFFFF" cx="64.1023364" cy="42.5593262" r="1.44067383"></circle>
            <circle id="Oval-Copy-11" fill="#FFFFFF" cx="70.9958911" cy="45.4406738" r="1.44067383"></circle>
        </g>
    </g>
</svg>