<?xml version="1.0" encoding="UTF-8"?>
<svg width="52px" height="131px" viewBox="0 0 52 131" version="1.1" xmlns="http://www.w3.org/2000/svg" xmlns:xlink="http://www.w3.org/1999/xlink">
    <title>icon/ski/white</title>
    <g id="Symbols" stroke="none" stroke-width="1" fill="none" fill-rule="evenodd">
        <g id="icon/ski/white" transform="translate(1.292080, 1.459855)" stroke="#FFFFFF" stroke-width="2">
            <g id="Group-16-Copy">
                <g id="Group-12">
                    <path d="M21.6085435,10.8072391 C21.6085435,4.84871739 16.7598261,0 10.8013043,0 C4.84871739,0 4.24549285e-13,4.84871739 4.24549285e-13,10.8072391 C4.24549285e-13,11.8102174 0.225521739,15.3532826 0.56973913,20.7123913 C1.24036957,31.1160652 2.26708696,47.0034783 2.67658696,60.3923478 C1.67954348,60.5288478 0.908021739,61.3834565 0.908021739,62.4161087 C0.908021739,63.4903043 1.73295652,64.3686522 2.78341304,64.4576739 C2.83682609,66.6891522 2.86056522,68.8256739 2.86056522,70.8197609 C2.86056522,74.256 2.78341304,77.751587 2.64691304,81.2115652 C2.64691304,81.2175 2.64691304,81.2234348 2.64691304,81.2293696 C2.21367391,92.3630217 1.2285,103.081239 0.575673913,110.16737 C0.231456522,113.941891 4.24549285e-13,116.440435 4.24549285e-13,117.473087 C4.24549285e-13,123.431609 4.84871739,128.280326 10.8013043,128.280326 C16.7598261,128.280326 21.6085435,123.431609 21.6085435,117.473087 C21.6085435,116.440435 21.377087,113.941891 21.0328696,110.16737 C20.3800435,103.081239 19.3948696,92.3630217 18.9616304,81.2353043 C18.8251304,77.7575217 18.7479783,74.2619348 18.7479783,70.8197609 C18.7479783,68.8256739 18.7717174,66.6891522 18.8251304,64.4576739 C19.875587,64.3686522 20.7005217,63.4903043 20.7005217,62.4161087 C20.7005217,61.3834565 19.929,60.5288478 18.9319565,60.3923478 C19.3414565,47.0034783 20.3681739,31.1160652 21.0328696,20.7123913 C21.3830217,15.3532826 21.6085435,11.8102174 21.6085435,10.8072391" id="Path"></path>
                    <rect id="Rectangle" x="7.15269632" y="47.8613451" width="7.30315085" height="6" rx="2"></rect>
                    <rect id="Rectangle-Copy-2" x="6.80427174" y="70.4989153" width="8" height="15" rx="2"></rect>
                    <path d="M21.6085435,10.8072391 C21.6085435,4.84871739 16.7598261,0 10.8013043,0 C4.84871739,0 4.24549285e-13,4.84871739 4.24549285e-13,10.8072391 C4.24549285e-13,11.8102174 0.225521739,15.3532826 0.56973913,20.7123913 C1.24036957,31.1160652 2.26708696,47.0034783 2.67658696,60.3923478 C1.67954348,60.5288478 0.908021739,61.3834565 0.908021739,62.4161087 C0.908021739,63.4903043 1.73295652,64.3686522 2.78341304,64.4576739 C2.83682609,66.6891522 2.86056522,68.8256739 2.86056522,70.8197609 C2.86056522,74.256 2.78341304,77.751587 2.64691304,81.2115652 C2.64691304,81.2175 2.64691304,81.2234348 2.64691304,81.2293696 C2.21367391,92.3630217 1.2285,103.081239 0.575673913,110.16737 C0.231456522,113.941891 4.24549285e-13,116.440435 4.24549285e-13,117.473087 C4.24549285e-13,123.431609 4.84871739,128.280326 10.8013043,128.280326 C16.7598261,128.280326 21.6085435,123.431609 21.6085435,117.473087 C21.6085435,116.440435 21.377087,113.941891 21.0328696,110.16737 C20.3800435,103.081239 19.3948696,92.3630217 18.9616304,81.2353043 C18.8251304,77.7575217 18.7479783,74.2619348 18.7479783,70.8197609 C18.7479783,68.8256739 18.7717174,66.6891522 18.8251304,64.4576739 C19.875587,64.3686522 20.7005217,63.4903043 20.7005217,62.4161087 C20.7005217,61.3834565 19.929,60.5288478 18.9319565,60.3923478 C19.3414565,47.0034783 20.3681739,31.1160652 21.0328696,20.7123913 C21.3830217,15.3532826 21.6085435,11.8102174 21.6085435,10.8072391" id="Path"></path>
                </g>
                <g id="Group-12" transform="translate(27.999124, 0.000000)">
                    <path d="M21.6085435,10.8072391 C21.6085435,4.84871739 16.7598261,0 10.8013043,0 C4.84871739,0 4.24549285e-13,4.84871739 4.24549285e-13,10.8072391 C4.24549285e-13,11.8102174 0.225521739,15.3532826 0.56973913,20.7123913 C1.24036957,31.1160652 2.26708696,47.0034783 2.67658696,60.3923478 C1.67954348,60.5288478 0.908021739,61.3834565 0.908021739,62.4161087 C0.908021739,63.4903043 1.73295652,64.3686522 2.78341304,64.4576739 C2.83682609,66.6891522 2.86056522,68.8256739 2.86056522,70.8197609 C2.86056522,74.256 2.78341304,77.751587 2.64691304,81.2115652 C2.64691304,81.2175 2.64691304,81.2234348 2.64691304,81.2293696 C2.21367391,92.3630217 1.2285,103.081239 0.575673913,110.16737 C0.231456522,113.941891 4.24549285e-13,116.440435 4.24549285e-13,117.473087 C4.24549285e-13,123.431609 4.84871739,128.280326 10.8013043,128.280326 C16.7598261,128.280326 21.6085435,123.431609 21.6085435,117.473087 C21.6085435,116.440435 21.377087,113.941891 21.0328696,110.16737 C20.3800435,103.081239 19.3948696,92.3630217 18.9616304,81.2353043 C18.8251304,77.7575217 18.7479783,74.2619348 18.7479783,70.8197609 C18.7479783,68.8256739 18.7717174,66.6891522 18.8251304,64.4576739 C19.875587,64.3686522 20.7005217,63.4903043 20.7005217,62.4161087 C20.7005217,61.3834565 19.929,60.5288478 18.9319565,60.3923478 C19.3414565,47.0034783 20.3681739,31.1160652 21.0328696,20.7123913 C21.3830217,15.3532826 21.6085435,11.8102174 21.6085435,10.8072391" id="Path"></path>
                    <rect id="Rectangle" x="7.15269632" y="47.8613451" width="7.30315085" height="6" rx="2"></rect>
                    <rect id="Rectangle-Copy-2" x="6.80427174" y="70.4989153" width="8" height="15" rx="2"></rect>
                    <path d="M21.6085435,10.8072391 C21.6085435,4.84871739 16.7598261,0 10.8013043,0 C4.84871739,0 4.24549285e-13,4.84871739 4.24549285e-13,10.8072391 C4.24549285e-13,11.8102174 0.225521739,15.3532826 0.56973913,20.7123913 C1.24036957,31.1160652 2.26708696,47.0034783 2.67658696,60.3923478 C1.67954348,60.5288478 0.908021739,61.3834565 0.908021739,62.4161087 C0.908021739,63.4903043 1.73295652,64.3686522 2.78341304,64.4576739 C2.83682609,66.6891522 2.86056522,68.8256739 2.86056522,70.8197609 C2.86056522,74.256 2.78341304,77.751587 2.64691304,81.2115652 C2.64691304,81.2175 2.64691304,81.2234348 2.64691304,81.2293696 C2.21367391,92.3630217 1.2285,103.081239 0.575673913,110.16737 C0.231456522,113.941891 4.24549285e-13,116.440435 4.24549285e-13,117.473087 C4.24549285e-13,123.431609 4.84871739,128.280326 10.8013043,128.280326 C16.7598261,128.280326 21.6085435,123.431609 21.6085435,117.473087 C21.6085435,116.440435 21.377087,113.941891 21.0328696,110.16737 C20.3800435,103.081239 19.3948696,92.3630217 18.9616304,81.2353043 C18.8251304,77.7575217 18.7479783,74.2619348 18.7479783,70.8197609 C18.7479783,68.8256739 18.7717174,66.6891522 18.8251304,64.4576739 C19.875587,64.3686522 20.7005217,63.4903043 20.7005217,62.4161087 C20.7005217,61.3834565 19.929,60.5288478 18.9319565,60.3923478 C19.3414565,47.0034783 20.3681739,31.1160652 21.0328696,20.7123913 C21.3830217,15.3532826 21.6085435,11.8102174 21.6085435,10.8072391" id="Path"></path>
                </g>
            </g>
        </g>
    </g>
</svg>