<?xml version="1.0" encoding="UTF-8"?>
<svg width="82px" height="99px" viewBox="0 0 82 99" version="1.1" xmlns="http://www.w3.org/2000/svg" xmlns:xlink="http://www.w3.org/1999/xlink">
    <title>icon/ski-shoe/white</title>
    <g id="Symbols" stroke="none" stroke-width="1" fill="none" fill-rule="evenodd">
        <g id="icon/ski-shoe/white" transform="translate(1.244033, 1.223096)" stroke="#FFFFFF" stroke-width="2">
            <path d="M76.7716168,84.2501739 C76.3561821,77.4904565 72.4748342,71.4251087 66.4332255,68.2262609 L45.7861168,57.2943913 C44.2371386,56.4753913 43.4656168,54.7186957 43.9107255,53.0213478 L51.7743125,18.5580652 L49.0977255,17.9764565 L51.3113994,9.11582609 L47.5606168,8.18406522 C42.8187255,6.9971087 37.3290516,6.03567391 31.9165299,7.5075 C28.6998777,4.20776087 24.6226821,1.85165217 20.0885081,0.718108696 L17.2160734,7.10542736e-15 L15.097356,10.5817174 L11.5661603,9.81613043 L1.41768206,58.8730435 C-0.279665769,67.074913 -0.451774465,75.4192174 0.895421188,83.6804348 L0.895421188,94.3096522 C0.895421188,95.4142217 1.79085169,96.3096522 2.89542119,96.3096522 L32.6465299,96.3096522 C33.7510994,96.3096522 34.6465299,95.4142217 34.6465299,94.3096522 L34.6465299,94.2977391 C34.6465299,93.1931696 35.5419604,92.2977391 36.6465299,92.2977391 L41.0561168,92.2977391 C42.1606863,92.2977391 43.0561168,93.1931696 43.0561168,94.2977391 L43.0561168,94.3096522 C43.0561168,95.4142217 43.9515473,96.3096522 45.0561168,96.3096522 L76.8131821,96.3096522 C77.9177516,96.3096522 78.8131821,95.4142217 78.8131821,94.3096522 L78.8131821,86.2976739 L78.8131821,86.2976739 L76.7716168,84.2501739 Z" id="Path-Copy-6"></path>
            <path d="M53.8725027,60.3239609 L53.8725027,73.3239609 C53.8725027,74.4285304 52.9770722,75.3239609 51.8725027,75.3239609 L45.5786222,75.3239609 C44.4740527,75.3239609 43.5786222,74.4285304 43.5786222,73.3239609 L43.5786222,60.3239609 L43.5786222,60.3239609" id="Path-Copy-7" transform="translate(48.725562, 67.823961) rotate(27.000000) translate(-48.725562, -67.823961) "></path>
            <path d="M42.8725027,37.0335171 L42.8725027,50.0335171 C42.8725027,51.1380866 41.9770722,52.0335171 40.8725027,52.0335171 L34.5786222,52.0335171 C33.4740527,52.0335171 32.5786222,51.1380866 32.5786222,50.0335171 L32.5786222,37.0335171 L32.5786222,37.0335171" id="Path-Copy-8" transform="translate(37.725562, 44.533517) rotate(103.000000) translate(-37.725562, -44.533517) "></path>
        </g>
    </g>
</svg>