<?xml version="1.0" encoding="UTF-8"?>
<svg width="74px" height="97px" viewBox="0 0 74 97" version="1.1" xmlns="http://www.w3.org/2000/svg" xmlns:xlink="http://www.w3.org/1999/xlink">
    <title>icon/suitcase</title>
    <g id="Symbols" stroke="none" stroke-width="1" fill="none" fill-rule="evenodd">
        <g id="icon/white/suitcase" transform="translate(2.000000, 2.000000)" stroke="#FFFFFF" stroke-width="3">
            <g id="icon/suitcase">
                <path d="M3.57224782,85.900597 C5.54595364,85.900597 7.14531477,87.5003677 7.14531477,89.473664 C7.14531477,91.4465506 5.54595364,93.0463213 3.57224782,93.0463213 C1.59936112,93.0463213 4.87609952e-13,91.4465506 4.87609952e-13,89.473664 C4.87609952e-13,87.5003677 1.59936112,85.900597 3.57224782,85.900597 Z M65.9913987,85.8496058 C67.964695,85.8496058 69.5640561,87.4493765 69.5640561,89.4222632 C69.5640561,91.3951499 67.964695,92.9953302 65.9913987,92.9953302 C64.018512,92.9953302 62.4187413,91.3951499 62.4187413,89.4222632 C62.4187413,87.4493765 64.018512,85.8496058 65.9913987,85.8496058 Z M57.7371606,8.11147189 C61.1160926,8.11147189 63.8806733,10.8760526 63.8806733,14.2549845 L63.8806733,81.2192723 C60.5012294,81.2192723 57.7371606,83.983341 57.7371606,87.3627849 L11.8266907,87.3627849 C11.8266907,83.983341 9.06262195,81.2192723 5.68317804,81.2192723 L5.68317804,14.2549845 C5.68317804,10.8760526 8.44827069,8.11147189 11.8266907,8.11147189 L57.7371606,8.11147189 Z" id="Combined-Shape"></path>
                <path d="M24.7177768,3.58371571 C24.7177768,1.61267207 26.3304489,-4.35207426e-14 28.3014925,-4.35207426e-14 L41.2622564,-4.35207426e-14 C43.2333,-4.35207426e-14 44.8459721,1.61267207 44.8459721,3.58371571" id="Path" stroke-linecap="round"></path>
                <line x1="15.7174796" y1="17.9202554" x2="15.7174796" y2="75.9319093" id="Stroke-9" stroke-linecap="round"></line>
                <line x1="28.4269738" y1="17.9202554" x2="28.4269738" y2="75.9319093" id="Stroke-11" stroke-linecap="round"></line>
                <line x1="41.1369799" y1="17.9202554" x2="41.1369799" y2="75.9319093" id="Stroke-13" stroke-linecap="round"></line>
                <line x1="53.8469348" y1="17.9202554" x2="53.8469348" y2="75.9319093" id="Stroke-15" stroke-linecap="round"></line>
            </g>
        </g>
    </g>
</svg>