<?xml version="1.0" encoding="UTF-8"?>
<svg width="164px" height="164px" viewBox="0 0 164 164" version="1.1" xmlns="http://www.w3.org/2000/svg" xmlns:xlink="http://www.w3.org/1999/xlink">
    <title>booom-icon/white</title>
    <defs>
        <polygon id="path-1" points="0.00664475084 0.049451596 11.2680873 0.049451596 11.2680873 11.238996 0.00664475084 11.238996"></polygon>
    </defs>
    <g id="booom-icon/white" stroke="none" stroke-width="1" fill="none" fill-rule="evenodd">
        <g id="Group-66" transform="translate(1.500000, 0.000000)">
            <path d="M55.2507293,97.9388233 C55.2005198,97.8607332 55.1502035,97.7825346 55.101169,97.7047703 C54.967633,97.4931995 54.8345244,97.2767412 54.7076118,97.063867 C54.5782421,96.8474087 54.4506885,96.6282352 54.3278354,96.4113425 C54.205196,96.1943412 54.0830907,95.9721266 53.9651517,95.7512154 C53.8468922,95.5297611 53.7301283,95.3049399 53.6169966,95.0805531 C53.5045059,94.8571438 53.3930835,94.6290644 53.2850796,94.4015279 C53.1780371,94.1756207 53.0718493,93.9446087 52.9691868,93.7133796 C52.8671653,93.484214 52.7667463,93.2507041 52.6698526,93.0179544 C52.5732793,92.785422 52.4777744,92.5482193 52.3869699,92.3139491 C52.295204,92.0772895 52.2056815,91.8375889 52.1198979,91.5994087 C52.0340076,91.36112 51.950147,91.1188127 51.8700254,90.8783518 C51.7899038,90.6379995 51.711812,90.3930856 51.6374591,90.1502352 C51.562679,89.9055385 51.4901422,89.6576922 51.4218786,89.4133213 C51.3529741,89.1663438 51.2864197,88.9162167 51.223818,88.6691306 C51.1605754,88.4191121 51.099683,88.1658352 51.0435979,87.9185319 C50.9863376,87.6660154 50.9314276,87.4100233 50.880684,87.1580498 C50.8297266,86.9037955 50.7809059,86.6460657 50.7360378,86.3896392 C50.6912765,86.1353849 50.6488655,85.8754829 50.6099798,85.6172101 C50.5714146,85.3590458 50.5351997,85.0966458 50.5027237,84.8369611 C50.4701409,84.5762988 50.4402289,84.3111836 50.4140558,84.0491094 C50.3877759,83.7857319 50.3644872,83.5181187 50.3446171,83.2535465 C50.3247469,82.987671 50.3079748,82.7178856 50.2946212,82.4520101 C50.2812676,82.1837452 50.2710121,81.9114617 50.2644955,81.6430882 C50.2576585,81.3718909 50.2542399,81.0971094 50.2542399,80.8263465 C50.2542399,80.5555836 50.2576585,80.2808021 50.2644955,80.0094962 C50.2710121,79.7412313 50.2812676,79.4689478 50.2946212,79.2004657 C50.3079748,78.9348074 50.3247469,78.665022 50.3446171,78.3991465 C50.3644872,78.1345743 50.3877759,77.8669611 50.4140558,77.6033664 C50.4402289,77.3415094 50.4701409,77.0763942 50.5027237,76.8157319 C50.5351997,76.5560472 50.5714146,76.2936472 50.6099798,76.0354829 C50.6488655,75.7772101 50.6912765,75.5173081 50.7362514,75.2610988 C50.7809059,75.0066273 50.8297266,74.7488975 50.880684,74.4946432 C50.9314276,74.2426697 50.9863376,73.9866776 51.0431706,73.7356816 C51.099683,73.4868577 51.1605754,73.2335809 51.2240317,72.9830193 C51.2864197,72.7364763 51.3529741,72.4863491 51.4220923,72.2386114 C51.4901422,71.9948922 51.562679,71.7471544 51.6374591,71.5024577 C51.711812,71.2596074 51.7899038,71.0146935 51.8705595,70.7730379 C51.950147,70.5338803 52.0340076,70.2914644 52.1206457,70.0513293 C52.2056815,69.8151041 52.295204,69.5754034 52.3864358,69.3399385 C52.4777744,69.1044736 52.5732793,68.867271 52.6702799,68.6339783 C52.7667463,68.4018803 52.8671653,68.1684789 52.9699346,67.9376842 C53.0718493,67.7080842 53.1780371,67.4770723 53.2855069,67.2501875 C53.3930835,67.0236286 53.5045059,66.7954405 53.6183854,66.5696419 C53.7301283,66.3477531 53.8468922,66.1229319 53.9651517,65.9014776 C54.0830907,65.6805664 54.205196,65.4583518 54.3285832,65.2406988 C54.4506885,65.0244577 54.5782421,64.8052842 54.7061162,64.5912154 C54.8345244,64.3759518 54.967633,64.1594935 55.1002076,63.9494432 C55.2332094,63.7384154 55.3706981,63.5260842 55.5090414,63.3179889 C55.64653,63.1109796 55.7890396,62.9019068 55.9310151,62.698916 C56.0744862,62.4938617 56.2221235,62.2881558 56.3687995,62.0885319 C56.5170778,61.8871703 56.6690952,61.6854829 56.8201511,61.4902034 C56.9729163,61.292426 57.1296341,61.0945399 57.2870998,60.9007809 C57.4430698,60.7084339 57.6040608,60.5148922 57.7655859,60.325369 C57.9262564,60.1367147 58.0921615,59.9466485 58.2575325,59.7617955 C58.422583,59.5771597 58.5927613,59.3913293 58.7634737,59.2091915 C58.9329041,59.0284657 59.1070351,58.8469796 59.2812728,58.6700551 C59.4554038,58.4928048 59.6338078,58.3158803 59.8115709,58.1435174 C59.9908297,57.9700683 60.1736137,57.7969452 60.3540476,57.6301213 C60.5370453,57.4610167 60.7239957,57.2924551 60.9094504,57.1289981 C61.0959735,56.9648895 61.2863424,56.8012154 61.476925,56.6415597 C61.6660119,56.4825558 61.8607608,56.3231174 62.0543346,56.1685664 C62.2472674,56.0143412 62.4456485,55.8597902 62.6427476,55.710018 C62.8401672,55.55992 63.0425009,55.409822 63.2417366,55.2656975 C63.4437499,55.1195094 63.6493953,54.9746246 63.8540793,54.8341928 C64.0578018,54.6941955 64.266652,54.554524 64.4727248,54.4202829 C64.6807204,54.2845213 64.8937371,54.1491942 65.1030147,54.0200577 C65.3159244,53.8885319 65.5315049,53.7589611 65.7449489,53.6340604 C65.9583928,53.509377 66.1768577,53.3852366 66.3942543,53.2652233 C66.6119713,53.1449928 66.8331069,53.0262829 67.0538152,52.9112657 C67.273562,52.7970087 67.4979025,52.6837293 67.7218157,52.5739253 C67.9439127,52.4649902 68.1711376,52.3571412 68.3986829,52.2527677 C68.6239848,52.1490458 68.8536667,52.0468445 69.0826008,51.9483359 C69.3113212,51.8501531 69.5446353,51.7530564 69.775065,51.6608472 C70.0079518,51.5674432 70.2436161,51.4764286 70.4779985,51.389324 C70.712274,51.3018935 70.9506091,51.2167438 71.187128,51.1352869 C71.4236469,51.0538299 71.6645459,50.9743279 71.903415,50.8988445 C72.1439935,50.822818 72.3877768,50.7489637 72.6281416,50.679671 C72.8711771,50.6095094 73.1170969,50.5418458 73.3601325,50.4782008 C73.6060523,50.4140127 73.8551771,50.3521054 74.0985331,50.2950856 C74.3468032,50.2367624 74.5985986,50.1810458 74.8465483,50.1294564 C75.0965276,50.0775412 75.3501392,50.0280154 75.602362,49.9822909 C75.8524482,49.9368922 76.1080895,49.8936657 76.3620215,49.8542405 C76.6160604,49.814924 76.8740519,49.7781054 77.1294795,49.7450882 C77.3858686,49.7119624 77.6466377,49.6816604 77.9045224,49.6550511 C78.0569671,49.6393028 78.2109074,49.6249664 78.3648477,49.6114988 L81.3281715,18.3229746 C80.7161494,18.3210591 80.1035931,18.3264895 79.4955236,18.3419121 C78.9739855,18.3554882 78.4451829,18.3757981 77.9239653,18.4027332 C77.4050978,18.4293425 76.878966,18.4634458 76.3600986,18.503414 C75.8439019,18.5433823 75.3214022,18.5905187 74.8071284,18.6436286 C74.2941366,18.6966299 73.7748418,18.7569081 73.2637729,18.8230511 C72.7536654,18.888977 72.2376823,18.9622882 71.7302456,19.0412472 C71.2225952,19.1199889 70.7102443,19.2063332 70.2096446,19.2972392 C69.708297,19.3882538 69.2006466,19.4873054 68.7004742,19.5911359 C68.203934,19.6946405 67.7010909,19.805965 67.2041233,19.9225028 C66.7119631,20.0379544 66.2132863,20.1616604 65.7218738,20.2902538 C65.2338799,20.4178697 64.7395831,20.5538485 64.252978,20.6942803 C63.7701118,20.8337346 63.2806223,20.9816604 62.7981835,21.1341478 C62.3184154,21.2859836 61.83384,21.445965 61.359627,21.6090962 C60.8855208,21.7722273 60.40618,21.9438299 59.9368811,22.1185823 C59.468971,22.2925743 58.9956126,22.4755809 58.5284503,22.6628233 C58.0647065,22.8487624 57.5973306,23.0429558 57.1394624,23.2397558 C56.6807396,23.4369902 56.2182777,23.6425875 55.7669261,23.8501399 C55.3138652,24.0584525 54.8579199,24.2749107 54.4118028,24.4934326 C53.9653653,24.7121717 53.5157229,24.9394909 53.0777249,25.1675703 C52.6385517,25.3960842 52.1946781,25.6340472 51.7588166,25.8749425 C51.3247713,26.1146432 50.8879483,26.3627068 50.4615946,26.6120736 C50.0367365,26.8603544 49.6072848,27.1186273 49.1823198,27.3809187 C48.7628032,27.6403862 48.3406158,27.9082167 47.9259064,28.1784366 C47.5119448,28.4483306 47.0958467,28.7266962 46.6898973,29.0057134 C46.2845889,29.2840789 45.8760756,29.5718935 45.4732242,29.8631836 C45.0737913,30.1519756 44.6729697,30.4491306 44.2803739,30.7475889 C43.8875644,31.0462644 43.4936867,31.3533028 43.1086757,31.6608842 C42.7233443,31.9690087 42.3370514,32.2851703 41.9619755,32.59992 C41.5848698,32.9160816 41.2061618,33.2419094 40.8355727,33.5679544 C40.4671202,33.8925875 40.0966379,34.2267783 39.7330996,34.5624895 C39.3725524,34.8957028 39.0100823,35.2387995 38.6556244,35.5824392 C38.3021279,35.9251015 37.9475631,36.2769955 37.6014378,36.6287809 C37.2554194,36.9807836 36.9091873,37.3411491 36.5721424,37.700863 C36.234243,38.0610114 35.8967708,38.4295226 35.5679518,38.7972736 C35.2388123,39.1655677 34.9099933,39.5422246 34.5907888,39.9169266 C34.269982,40.2935836 33.9494956,40.6787121 33.6397989,41.0605823 C33.3289272,41.4434299 33.0179485,41.8360525 32.7142343,42.2288922 C32.4124429,42.6193425 32.110438,43.0196763 31.815911,43.4201187 C31.5230933,43.8181717 31.2307029,44.2257823 30.9449358,44.6342617 C30.6601303,45.0413293 30.3771408,45.4567597 30.1039796,45.8677372 C29.8288955,46.2814299 29.5549864,46.7045717 29.2886623,47.1268445 C29.0238337,47.5469452 28.760287,47.9762776 28.5036843,48.4055015 C28.2470815,48.8347253 27.9931495,49.2714432 27.7493662,49.702622 C27.50366,50.1368419 27.259663,50.5808366 27.0238919,51.0222246 C26.7869456,51.4653505 26.5528837,51.9165134 26.3291842,52.3606167 C26.1036687,52.8084127 25.880076,53.2655491 25.665457,53.718667 C25.4500901,54.172871 25.2371803,54.6364154 25.0332442,55.0952895 C24.8280261,55.5559015 24.6257992,56.0261796 24.4323322,56.4916789 C24.2383311,56.9579385 24.0472144,57.4331041 23.8638962,57.9058803 C23.6801507,58.3795253 23.500251,58.8608816 23.3295386,59.3345266 C23.1572238,59.8137107 22.9884343,60.3009319 22.8284047,60.7815279 C22.6675206,61.2650564 22.5100549,61.7578167 22.3608151,62.2454723 C22.2107207,62.7359518 22.0653267,63.2335995 21.9281585,63.7240789 C21.7900289,64.2192286 21.6561724,64.7217637 21.5306486,65.2174564 C21.4041633,65.7176021 21.2825921,66.2245902 21.1687126,66.726365 C21.0544058,67.2302034 20.9449063,67.7414273 20.8430985,68.2461346 C20.7408633,68.7546432 20.6435423,69.2707544 20.5544471,69.7786114 C20.4646041,70.2895094 20.3796752,70.8103995 20.3021175,71.3265107 C20.2244529,71.8424048 20.1523435,72.3668789 20.0874984,72.8854882 C20.0224397,73.405075 19.9632565,73.9331332 19.9110173,74.454675 C19.8588848,74.97752 19.8125211,75.5087279 19.7731013,76.0335279 C19.7337883,76.5609346 19.7002441,77.0958352 19.674071,77.6231332 C19.6475775,78.1533637 19.6277073,78.6909796 19.6143537,79.2211015 C19.6012138,79.7538299 19.5943767,80.2939438 19.5943767,80.8263465 C19.5943767,81.3587491 19.6012138,81.898863 19.6143537,82.4315915 C19.6277073,82.9617134 19.6475775,83.4993293 19.674071,84.0293425 C19.7002441,84.5568577 19.7337883,85.0917584 19.7731013,85.619165 C19.8125211,86.143965 19.8588848,86.675173 19.9110173,87.198018 C19.9632565,87.7195597 20.0224397,88.247618 20.0874984,88.7672048 C20.1523435,89.285814 20.2244529,89.8102882 20.3021175,90.3261823 C20.3796752,90.8422935 20.4646041,91.3631836 20.5539129,91.8721266 C20.6435423,92.3818299 20.7408633,92.8980498 20.8430985,93.4065584 C20.9449063,93.9112657 21.0544058,94.4224895 21.1689263,94.9277399 C21.2825921,95.4281028 21.4041633,95.9350909 21.5306486,96.4346935 C21.6561724,96.9309293 21.7900289,97.4334644 21.9281585,97.928071 C22.0653267,98.4190935 22.2107207,98.9166326 22.3608151,99.4072207 C22.5100549,99.8948763 22.6675206,100.387637 22.8279774,100.869645 C22.9884343,101.351761 23.1572238,101.838982 23.3290045,102.316211 C23.500251,102.791811 23.6801507,103.273168 23.8644304,103.748116 C24.0472144,104.219589 24.2383311,104.694754 24.4317981,105.160254 C24.6257992,105.626513 24.8280261,106.096792 25.0322827,106.555666 C25.2371803,107.016278 25.4500901,107.479822 25.6650296,107.933266 C25.880076,108.387144 26.1036687,108.84428 26.3280091,109.289578 C26.5528837,109.73618 26.7869456,110.187343 27.0238919,110.630468 C27.259663,111.071748 27.50366,111.515851 27.7489389,111.949311 C27.9931495,112.38125 28.2470815,112.817968 28.5051799,113.249907 C28.760287,113.676415 29.0238337,114.105748 29.2896237,114.52726 C29.5549864,114.948121 29.8288955,115.371263 30.1032318,115.783978 C30.3703038,116.185615 30.6462425,116.590511 30.925493,116.990084 L47.6561637,112.65766 L55.2507293,97.9388233 Z" id="Fill-1" fill="#FFFFFF" opacity="0.2"></path>
            <path d="M125.576614,123.951863 C125.914621,123.591714 126.252093,123.223203 126.580805,122.855452 C126.909944,122.487158 127.238763,122.110392 127.557968,121.735799 C127.878775,121.359033 128.199261,120.974014 128.509065,120.592143 C128.81983,120.209296 129.130808,119.816565 129.434522,119.423833 C129.736314,119.033383 130.038426,118.632941 130.332846,118.232607 C130.62577,117.834445 130.918054,117.426943 131.203821,117.018464 C131.488626,116.611396 131.771723,116.195966 132.044777,115.784988 C132.319968,115.371296 132.59377,114.948154 132.860094,114.525772 C133.12503,114.105672 133.38847,113.676448 133.645072,113.247224 C133.901675,112.817892 134.155714,112.381282 134.399391,111.950104 C134.645204,111.515884 134.889094,111.07178 135.124865,110.630501 C135.361918,110.187375 135.59598,109.736104 135.819573,109.292109 C136.045088,108.844313 136.268681,108.387176 136.4833,107.934059 C136.698667,107.479746 136.911576,107.016202 137.115619,106.557327 C137.320731,106.096824 137.522958,105.626546 137.716531,105.160938 C137.910532,104.694678 138.101542,104.219513 138.284861,103.746845 C138.468606,103.273092 138.648506,102.791844 138.819218,102.318199 C138.99164,101.839015 139.160322,101.351794 139.320352,100.871198 C139.481343,100.387669 139.638702,99.8949089 139.787942,99.4071446 C139.938036,98.9166652 140.08343,98.4191261 140.220705,97.9286466 C140.358835,97.4333883 140.492584,96.9308532 140.618108,96.4352691 C140.744593,95.9351234 140.866271,95.4281354 140.980044,94.9262519 C141.094458,94.4225221 141.203957,93.9112983 141.305658,93.4064824 C141.407893,92.8980824 141.505214,92.3818625 141.59431,91.8741142 C141.684153,91.3632162 141.769188,90.8423261 141.846639,90.3262148 C141.924304,89.8103208 141.996413,89.285738 142.061258,88.7671287 C142.126317,88.247542 142.185607,87.7195923 142.237739,87.1980506 C142.289979,86.6752056 142.336342,86.1439976 142.375655,85.6191976 C142.414968,85.091791 142.448513,84.5567817 142.474686,84.0295923 C142.501179,83.4993619 142.521049,82.961746 142.534403,82.4315155 C142.547543,81.8988956 142.55438,81.3587817 142.55438,80.8263791 C142.55438,80.740795 142.553098,80.6542334 142.552778,80.5683234 L111.775616,83.5812532 C111.762263,83.737542 111.750191,83.8942652 111.734701,84.0492506 C111.708528,84.3112162 111.678616,84.5763314 111.64614,84.8369936 C111.613557,85.0966784 111.577449,85.3590784 111.538777,85.6172426 C111.499891,85.8754069 111.45748,86.1354175 111.412612,86.3915181 C111.367851,86.6460983 111.319137,86.9038281 111.268073,87.1580824 C111.217329,87.4100559 111.162526,87.6660479 111.105693,87.917044 C111.049074,88.1658678 110.988181,88.4191446 110.924832,88.6697062 C110.862444,88.9162493 110.79589,89.1662678 110.726664,89.4141142 C110.658615,89.6577248 110.586078,89.9055711 110.511298,90.1501592 C110.437052,90.3931181 110.358853,90.6380321 110.278197,90.8795791 C110.19861,91.1188453 110.114856,91.3611526 110.028218,91.6013963 C109.943182,91.8376215 109.853553,92.0773221 109.762321,92.312787 C109.670982,92.5482519 109.575584,92.7854546 109.478477,93.0187473 C109.382117,93.2507367 109.281591,93.4842466 109.178822,93.7150413 C109.076907,93.9446413 108.970826,94.1756532 108.86325,94.402538 C108.755673,94.629097 108.644251,94.8571764 108.530371,95.0830837 C108.418735,95.3049725 108.301865,95.5297936 108.183605,95.7512479 C108.065666,95.9721592 107.943561,96.1942652 107.820174,96.4120268 C107.698068,96.6282678 107.570621,96.8474413 107.442641,97.0615102 C107.314232,97.2767738 107.181124,97.4932321 107.048549,97.7032824 C106.915547,97.9143102 106.778165,98.1265327 106.639715,98.3346281 C106.502334,98.541746 106.359824,98.7508188 106.217742,98.9537009 C106.074271,99.1588638 105.926633,99.3644612 105.779957,99.5641936 C105.631679,99.7655552 105.479662,99.9672426 105.328606,100.162522 C105.175947,100.360191 105.019123,100.558186 104.861764,100.751945 C104.705687,100.944292 104.544696,101.137725 104.383171,101.327357 C104.2225,101.515902 104.056702,101.705968 103.891331,101.890821 C103.726174,102.075566 103.555995,102.261396 103.385283,102.443534 C103.215853,102.62426 103.041829,102.805637 102.867484,102.98267 C102.693353,103.159921 102.514949,103.336845 102.337186,103.5091 C102.158034,103.682657 101.97525,103.855672 101.794816,104.022604 C101.611711,104.191709 101.424761,104.36027 101.239306,104.523619 C101.052783,104.687836 100.862521,104.85151 100.671939,105.011166 C100.482745,105.17017 100.287996,105.329608 100.094529,105.484051 C99.9014893,105.638384 99.7031083,105.792935 99.5060092,105.942708 C99.3085896,106.092806 99.1063627,106.242904 98.9070201,106.387028 C98.7050069,106.533216 98.4993615,106.678101 98.2946775,106.818533 C98.090955,106.95853 97.8822115,107.098202 97.6761388,107.232443 C97.4680363,107.368204 97.2551265,107.503531 97.0457421,107.632559 C96.8328323,107.764194 96.6172518,107.893765 96.4038079,108.018665 C96.190364,108.143349 95.9718991,108.267489 95.7546093,108.387394 C95.5367854,108.507624 95.3156498,108.626443 95.0949415,108.74146 C94.8751947,108.855717 94.6508542,108.968996 94.4270479,109.0788 C94.204844,109.187735 93.9776192,109.295584 93.7501807,109.399958 C93.5247719,109.50368 93.29509,109.605881 93.0661559,109.704281 C92.8374355,109.802572 92.6041214,109.899561 92.3736917,109.991878 C92.1409118,110.085174 91.9051406,110.176297 91.6708651,110.263402 C91.4364827,110.350832 91.1981477,110.435982 90.9616287,110.517439 C90.7252166,110.598896 90.4843177,110.678398 90.2453417,110.753881 C90.0047633,110.829908 89.76098,110.903653 89.5206152,110.973055 C89.2775797,111.043216 89.0316598,111.11088 88.7886243,111.174416 C88.5427044,111.238713 88.2935797,111.30062 88.0503305,111.35764 C87.8019536,111.415963 87.5501581,111.47168 87.3023153,111.523269 C87.0522291,111.575076 86.7987244,111.62471 86.5463948,111.670326 C86.2964154,111.715833 86.0407741,111.758951 85.7867353,111.798485 C85.5328032,111.837693 85.2747049,111.874512 85.0192772,111.907529 C84.7628881,111.940655 84.502119,111.971065 84.2443412,111.997674 C83.9851745,112.024392 83.7220552,112.048069 83.4617134,112.06827 C83.2003034,112.08858 82.9349407,112.105523 82.6734238,112.1191 C82.4094498,112.132676 82.1417369,112.143102 81.8777629,112.149727 C81.3441531,112.163521 80.8045609,112.163521 80.2709511,112.149727 C80.007084,112.143102 79.7392642,112.132676 79.4751834,112.1191 C79.2138802,112.105523 78.9485175,112.08858 78.6870006,112.06827 C78.4267656,112.048069 78.1635395,112.024392 77.904266,111.997674 C77.646595,111.971065 77.3858259,111.940655 77.1295436,111.907529 C76.8740092,111.874512 76.6160176,111.837693 76.3619788,111.798485 C76.1080467,111.758951 75.8524054,111.715833 75.6003963,111.670109 C75.3500964,111.62471 75.0965917,111.575076 74.8465055,111.523269 C74.5986627,111.47168 74.3468673,111.415963 74.0999859,111.358074 C73.8552412,111.30062 73.6061164,111.238713 73.3596624,111.174308 C73.1170542,111.11088 72.8711343,111.043216 72.627351,110.972837 C72.3877341,110.903653 72.1440576,110.829908 71.9033723,110.753881 C71.6645031,110.678398 71.4236042,110.598896 71.1859102,110.516896 C70.9506732,110.435982 70.7122313,110.350832 70.4760328,110.262641 C70.2436802,110.176297 70.0079091,110.085174 69.7763042,109.992421 C69.5446994,109.899561 69.3112785,109.802572 69.0819171,109.703847 C68.853624,109.605881 68.6239421,109.50368 68.3969309,109.399198 C68.1712017,109.295584 67.9439768,109.187735 67.7208115,109.078366 C67.4978598,108.968996 67.2735193,108.855717 67.0514223,108.739939 C66.833171,108.626443 66.6119286,108.507624 66.3942115,108.387394 C66.1769218,108.267489 65.9583501,108.143349 65.7441583,108.017905 C65.531569,107.893765 65.3159885,107.764194 65.105429,107.63408 C64.8936943,107.503531 64.6807845,107.368204 64.4741777,107.23342 C64.2666093,107.098202 64.057759,106.95853 63.8530751,106.817772 C63.6493526,106.678101 63.443814,106.533216 63.2441509,106.388766 C63.0424582,106.242904 62.8401245,106.092806 62.6437731,105.943685 C62.4456057,105.792935 62.2472247,105.638384 62.0552533,105.484811 C61.8607181,105.329608 61.666076,105.17017 61.4753866,105.010188 C61.2862997,104.85151 61.0959308,104.687836 60.9095145,104.523619 C60.7239529,104.36027 60.5370025,104.191709 60.3551799,104.023582 C60.173571,103.855672 59.9907869,103.682657 59.811635,103.5091 C59.7679421,103.466851 59.7244628,103.423624 59.6808766,103.380832 L52.0056552,118.255849 L35.321455,122.576326 C35.4040337,122.669839 35.486185,122.763894 35.5689774,122.856647 C35.8967281,123.223203 36.2342002,123.591714 36.5722065,123.95208 C36.9091445,124.311576 37.2553767,124.671942 37.6013951,125.023945 C37.9476272,125.375621 38.3020852,125.727624 38.6557953,126.070286 C39.0100396,126.413817 39.3725097,126.757023 39.7343388,127.091214 C40.0965952,127.425839 40.4670775,127.760138 40.8356368,128.084663 C41.206119,128.410816 41.5848271,128.736644 41.960544,129.051611 C42.3370086,129.367555 42.7233015,129.683717 43.1095944,129.992493 C43.4937508,130.299314 43.8875217,130.606461 44.2813995,130.905788 C44.672927,131.203595 45.0738554,131.50075 45.4756385,131.79128 C45.8760328,132.080832 46.284653,132.368647 46.6888931,132.646252 C47.095804,132.925921 47.5119021,133.204395 47.9273593,133.475158 C48.3405731,133.744509 48.7627604,134.012339 49.1850547,134.273219 C49.607242,134.534098 50.0368006,134.792371 50.4609109,135.040109 C50.8879056,135.290019 51.3247285,135.537974 51.7588807,135.777674 C52.1946354,136.018678 52.638509,136.256533 53.0753319,136.483961 C53.515787,136.713235 53.9654294,136.940554 54.4111191,137.15875 C54.8578771,137.377706 55.3138224,137.594165 55.7651741,137.801608 C56.218235,138.010138 56.6808036,138.215735 57.1386718,138.412535 C57.5972879,138.609661 58.0646638,138.803963 58.5296895,138.990337 C58.9955699,139.177145 59.4690351,139.360043 59.9349155,139.5336 C60.4062441,139.708896 60.8854781,139.88039 61.3581955,140.043086 C61.8337972,140.206761 62.3183726,140.366742 62.7981407,140.518469 C63.2805796,140.671065 63.7700691,140.818882 64.2525079,140.958337 C64.7395404,141.098768 65.2338372,141.234856 65.7214038,141.362472 C66.2132436,141.491065 66.7119204,141.614663 67.2055762,141.73044 C67.701155,141.846761 68.2039981,141.958085 68.7004315,142.061481 C69.2006039,142.16542 69.7082543,142.264363 70.2077857,142.354943 C70.7103084,142.446284 71.2226593,142.532737 71.7303097,142.611478 C72.2377464,142.690437 72.7536227,142.763749 73.2637301,142.829674 C73.7747991,142.895817 74.2942007,142.956096 74.8071925,143.009097 C75.3214663,143.062207 75.8438591,143.109343 76.3600558,143.149312 C76.8789233,143.18928 77.4050551,143.223383 77.9237089,143.249992 C78.4451402,143.276927 78.9740495,143.297129 79.4954809,143.310705 C80.0194761,143.324064 80.5506289,143.331015 81.0744104,143.331015 C81.5980852,143.331015 82.1293447,143.324064 82.65334,143.310705 C83.1747713,143.297129 83.7035738,143.276927 84.2248983,143.249992 C84.7436589,143.223383 85.2698976,143.18928 85.7886582,143.149312 C86.3048549,143.109343 86.8273545,143.062207 87.3416283,143.009097 C87.8546202,142.956096 88.3739149,142.895817 88.8850907,142.829674 C89.3950913,142.763749 89.9110744,142.690437 90.4185112,142.611478 C90.9261616,142.532737 91.4385125,142.446284 91.9391122,142.355486 C92.4404597,142.264363 92.948217,142.16542 93.4482825,142.061481 C93.9448228,141.958085 94.4476659,141.846761 94.9446334,141.730223 C95.4367937,141.614663 95.9354705,141.491065 96.4268829,141.362472 C96.9149836,141.234856 97.4092805,141.098768 97.8957788,140.958337 C98.3787518,140.818882 98.8681344,140.671065 99.3505733,140.518469 C99.8303414,140.366742 100.315024,140.206761 100.78913,140.043629 C101.263343,139.88039 101.742577,139.708896 102.211982,139.534143 C102.679786,139.360043 103.153251,139.177145 103.620413,138.989794 C104.08405,138.803963 104.551426,138.609661 105.009401,138.41297 C105.468017,138.215735 105.930586,138.010138 106.381938,137.802477 C106.834892,137.594165 107.290944,137.377706 107.736954,137.159184 C108.183391,136.940554 108.633034,136.713235 109.071032,136.485155 C109.510205,136.256533 109.954079,136.018678 110.38994,135.777674 C110.823985,135.537974 111.260808,135.290019 111.687162,135.040652 C112.11202,134.792371 112.541472,134.534098 112.966437,134.271807 C113.385954,134.012339 113.808141,133.744509 114.22285,133.47418 C114.636812,133.204395 115.053017,132.925921 115.458966,132.647012 C115.864168,132.368647 116.272788,132.080832 116.675533,131.789542 C117.074965,131.50075 117.475787,131.203595 117.868383,130.905137 C118.261192,130.606461 118.65507,130.299314 119.040081,129.991733 C119.425412,129.683717 119.811705,129.367555 120.186781,129.052806 C120.563887,128.736644 120.942702,128.410816 121.313184,128.084663 C121.681743,127.760138 122.052226,127.425839 122.415657,127.090236 C122.776204,126.757023 123.138674,126.413817 123.493239,126.070286 C123.846736,125.727624 124.201194,125.375621 124.547426,125.023945 C124.893337,124.671942 125.239569,124.311576 125.576614,123.951863" id="Fill-3" fill="#FFFFFF" opacity="0.2"></path>
            <path d="M60.8640909,3.57158331 L63.0380568,3.00475152 L63.5157952,4.89868 L61.3707799,5.45790914 C60.4287636,5.7034747 59.9013499,5.44987205 59.7606563,4.89194623 L59.7532852,4.86262172 C59.6013746,4.26070914 60.0090333,3.79455815 60.8640909,3.57158331 L60.8640909,3.57158331 Z M64.4750109,8.70119921 L62.6488796,9.17734225 C61.8082438,9.39651576 61.2920471,9.18689987 61.1512467,8.62897404 L61.1438755,8.59954093 C60.9920718,7.99762834 61.3962051,7.57926543 62.2512628,7.35639921 L64.019493,6.89546146 L64.4750109,8.70119921 Z M56.8490376,5.22863497 C57.2008248,6.62339523 58.1612157,7.12397536 59.4968961,7.21390384 C58.698244,7.84459788 58.2093955,8.72313828 58.5093707,9.91230119 L58.5167419,9.9416257 C58.694505,10.6463913 59.0779135,11.1253581 59.5874869,11.4306588 C60.3334723,11.8776946 61.3136265,11.9664283 62.5889486,11.6338668 L67.7919381,10.2774456 L65.1995238,0.000401854305 L59.9674769,1.3644257 C57.5471638,1.99544556 56.3971518,3.43745086 56.8415596,5.19920185 L56.8490376,5.22863497 Z" id="Fill-5" fill="#FFFFFF"></path>
            <path d="M49.6301141,7.6415094 C51.0833061,6.99561007 52.6096759,7.77281801 53.2128313,9.17550675 L53.2247961,9.20331073 C53.8280583,10.6058909 53.368374,12.2329664 51.9151819,12.8788657 C50.4483158,13.5309558 48.9220528,12.7536392 48.3187907,11.3509505 L48.3068258,11.3231465 C47.7035637,9.92045775 48.1633548,8.29349086 49.6301141,7.6415094 L49.6301141,7.6415094 Z M45.6163427,12.5852948 C46.8168847,15.3767703 49.9718594,16.6376154 52.9329398,15.3213796 C55.8941271,14.0051438 57.1414601,10.7543597 55.9409181,7.96288424 L55.9289533,7.93508026 C54.7285182,5.14360477 51.5734366,3.88275974 48.6123562,5.1989955 C45.6511689,6.51523126 44.4039428,9.76612397 45.6043779,12.5574909 L45.6163427,12.5852948 Z" id="Fill-7" fill="#FFFFFF"></path>
            <path d="M37.7777481,14.2019221 C39.1003954,13.312195 40.7353032,13.811689 41.5662175,15.088391 L41.5826692,15.113697 C42.4136903,16.3901817 42.2351794,18.0732996 40.9125321,18.9630268 C39.5772791,19.8611168 37.9424781,19.3616228 37.1115637,18.0849208 L37.0950053,18.0597234 C36.2641978,16.7831301 36.442495,15.1001208 37.7777481,14.2019221 L37.7777481,14.2019221 Z M34.6572791,19.7722744 C36.3108819,22.3128625 39.6319754,23.0048122 42.3272658,21.191689 C45.0225562,19.3786744 45.7030557,15.9585685 44.0494528,13.4179804 L44.0330012,13.3926744 C42.3792915,10.8520864 39.0583048,10.1601367 36.3629076,11.9731513 C33.6676172,13.7862744 32.9872246,17.2063804 34.6408274,19.7469685 L34.6572791,19.7722744 Z" id="Fill-9" fill="#FFFFFF"></path>
            <path d="M27.2087911,22.7217113 C28.3628626,21.6156344 30.0574877,21.8245987 31.0902016,22.9384954 L31.1107128,22.960543 C32.1434267,24.0745483 32.2498282,25.7637483 31.0957567,26.8698252 C29.9307888,27.9862199 28.2362705,27.7773642 27.2034497,26.6634675 L27.1830454,26.6414199 C26.1502246,25.5274146 26.0438232,23.838106 27.2087911,22.7217113 L27.2087911,22.7217113 Z M25.0682626,28.7514808 C27.1235418,30.9683046 30.5118306,31.0745245 32.8634527,28.8207735 C35.2151818,26.5670225 35.3121823,23.0789272 33.2567964,20.8621033 L33.2363921,20.8400556 C31.1810061,18.6232318 27.7927173,18.5170119 25.4410951,20.7707629 C23.0894729,23.0245139 22.9924724,26.5125007 25.0477515,28.7293245 L25.0682626,28.7514808 Z" id="Fill-11" fill="#FFFFFF"></path>
            <polygon id="Fill-13" fill="#FFFFFF" points="22.9998008 40.0999875 21.2514408 35.6094286 25.9844905 36.0249677 27.8163906 33.5238048 19.4456069 27.1875399 17.7476701 29.5056962 22.5310361 33.1264034 17.6877392 32.8359823 17.6519515 32.8847478 19.3290567 37.548973 14.5217611 33.9100193 12.7971171 36.264777 21.1679007 42.6011505"></polygon>
            <polygon id="Fill-15" fill="#FFFFFF" points="13.8381316 51.4130117 16.0979879 52.5796925 20.2575805 44.2520766 17.9977243 43.0853958 16.5750853 45.9335653 9.52961963 42.296458 8.215305 44.9276262 15.2607706 48.5648421"></polygon>
            <path d="M8.04282992,56.5105335 L8.80697627,54.2521123 L11.2280372,56.3696673 L8.04282992,56.5105335 Z M14.9185446,56.1801441 L6.42950151,48.4176223 L5.43663472,51.3521362 L6.95552648,52.6877044 L5.64142551,56.5715719 L3.63080083,56.6889785 L2.61838437,59.6809468 L14.0083633,58.8701785 L14.9185446,56.1801441 Z" id="Fill-17" fill="#FFFFFF"></path>
            <path d="M6.47560882,72.797417 L7.30022026,67.9711468 L5.2143881,67.6029613 L4.86099846,69.6713163 L3.61249037,69.4508395 C3.40769958,68.9668766 3.35300324,68.4013481 3.47329245,67.697017 C3.75756387,66.0332315 5.14964985,65.0592236 6.80944879,65.35236 L6.83882671,65.3575732 C8.41059872,65.6350699 9.45933697,67.024617 9.20070446,68.538413 C9.02400964,69.5725905 8.54338691,70.2597613 7.79846974,70.9002302 L9.5188406,72.9641322 C10.6484482,72.0210779 11.4294735,70.8156236 11.7444048,68.9720898 C12.3000214,65.7196766 10.3595832,62.9065878 7.36314242,62.3775521 L7.3337645,62.3723388 C4.21981205,61.8224501 1.59908813,63.8764686 1.04080087,67.1438699 C0.715614027,69.0474646 1.14218139,70.7130964 1.84864019,71.980458 L6.47560882,72.797417 Z" id="Fill-19" fill="#FFFFFF"></path>
            <polygon id="Fill-21" fill="#FFFFFF" points="10.7369666 86.1633626 5.22620337 86.4122951 10.5458499 81.7866262 10.4257743 79.0359878 3.20486375e-05 79.5070262 0.127371968 82.4248143 5.84666499 82.1664328 0.325646206 86.9687004 0.438564238 89.5521891 10.8643065 89.0811507"></polygon>
            <polygon id="Fill-23" fill="#FFFFFF" points="6.04380684 99.8370962 8.39980901 99.3707279 7.45277177 94.4282458 9.19418791 94.08352 10.2412169 99.5486299 12.728939 99.0560869 11.1268276 90.6942591 0.883548887 92.7221028 1.43863129 95.6189293 5.09687643 94.8947226"></polygon>
            <path d="M14.3131245,109.991911 C15.2178575,108.671765 15.6085304,107.050663 14.9031399,104.996971 C13.8574997,101.952327 10.8309332,100.496963 7.9594821,101.516261 L7.93138613,101.526253 C4.98953486,102.570531 3.63013849,105.647323 4.61659555,108.519604 C5.38116921,110.745659 6.76321329,111.689039 8.36970466,112.182234 L9.11344671,109.565837 C8.18830937,109.217418 7.49766123,108.769839 7.1376482,107.721326 C6.65424792,106.313967 7.46806966,104.913233 8.94604599,104.38865 L8.97414196,104.378549 C10.4099209,103.868955 11.9185571,104.445235 12.4019574,105.852703 C12.7324857,106.814873 12.508893,107.635416 12.0024177,108.45976 L14.3131245,109.991911 Z" id="Fill-25" fill="#FFFFFF"></path>
            <path d="M16.6766581,121.329589 C17.8788025,120.62743 18.2817607,119.058678 17.5885486,117.831936 C16.8952298,116.605303 15.3592454,116.169128 14.157101,116.871396 L14.1312485,116.886493 C12.9289972,117.588652 12.526039,119.157404 13.2193579,120.384037 C13.9125699,121.61067 15.4485543,122.046845 16.6508055,121.344686 L16.6766581,121.329589 Z" id="Fill-27" fill="#FFFFFF"></path>
            <polygon id="Fill-29" fill="#FFFFFF" points="26.3559342 126.03097 24.4993566 123.762448 16.4765143 130.547704 21.5774823 136.780355 23.5258258 135.132535 20.2815422 131.168406"></polygon>
            <path d="M32.2279176,139.709536 L32.2079406,139.732019 C31.1969129,140.866551 29.5487583,141.107446 28.3623178,140.014511 C27.1869874,138.931894 27.2585627,137.197838 28.2695904,136.063306 L28.2895673,136.040824 C29.3007019,134.906291 30.9487496,134.665505 32.12408,135.748122 C33.3105206,136.840948 33.2389453,138.575004 32.2279176,139.709536 M34.4233561,141.731841 L34.4433331,141.709359 C36.4554533,139.451589 36.2930736,136.008893 33.8980789,133.802821 C31.5030842,131.596641 28.075162,131.773023 26.0631485,134.030792 L26.0430647,134.053274 C24.0310512,136.311044 24.193431,139.75374 26.5883188,141.959812 C28.9833135,144.165992 32.4112358,143.989611 34.4233561,141.731841" id="Fill-31" fill="#FFFFFF"></path>
            <path d="M39.5385964,142.365587 C39.744135,142.049534 40.1957003,141.989799 40.7822972,142.384159 C41.5559513,142.904506 42.2321775,143.795319 42.6608815,144.901288 L44.9979749,143.983431 C44.5512169,142.574551 43.6537483,141.389515 42.1687212,140.390853 C40.0720994,138.980888 38.0136154,139.304869 36.9444728,140.948236 L36.9280212,140.973542 C35.743824,142.793833 36.8335845,144.289926 38.4134755,145.97022 C39.4182003,147.045561 39.5736362,147.44079 39.3351944,147.807455 L39.3186359,147.832761 C39.0719682,148.212024 38.5745734,148.20453 37.9255884,147.768138 C36.9146676,147.088353 36.1921845,146.075571 35.7834575,144.801259 L33.3746819,145.525574 C33.8147097,147.220747 34.9666446,148.704024 36.5141665,149.744718 C38.6357863,151.17141 40.7450139,151.045206 41.9209853,149.237404 L41.9374369,149.212207 C43.0148053,147.556133 42.1943601,146.059606 40.4730278,144.265923 C39.4433051,143.173749 39.2589186,142.795354 39.5221447,142.390784 L39.5385964,142.365587 Z" id="Fill-33" fill="#FFFFFF"></path>
            <polygon id="Fill-35" fill="#FFFFFF" points="45.0506629 145.600525 47.8764981 146.997132 44.4215481 154.221495 47.0321233 155.511664 50.4869665 148.287301 53.3128017 149.683908 54.4209367 147.366729 46.158798 143.283238"></polygon>
            <path d="M61.2391882,152.447156 C59.8994483,152.064525 58.5022345,152.846078 58.1272655,154.20315 L58.1191465,154.232366 C57.7440706,155.589439 58.5364198,156.996581 59.8760528,157.37932 C61.2157927,157.76195 62.6130064,156.98029 62.9880823,155.623217 L62.9960945,155.594109 C63.3711704,154.236928 62.5788212,152.829786 61.2391882,152.447156" id="Fill-37" fill="#FFFFFF"></path>
            <path d="M72.5906874,154.960277 C72.6266887,154.583077 72.9980256,154.315246 73.6979678,154.384322 C74.6212891,154.475445 75.6292187,154.940401 76.5175001,155.713373 L78.1594586,153.789143 C77.1155277,152.757246 75.7766424,152.137739 74.0044596,151.962769 C71.5025293,151.715792 69.8332226,152.98261 69.6458449,154.943659 L69.6429605,154.973853 C69.435499,157.146255 71.0876063,157.948878 73.2575127,158.680796 C74.6406251,159.152377 74.96015,159.427593 74.9182731,159.865071 L74.9153887,159.895265 C74.8721231,160.347731 74.4292109,160.5782 73.654809,160.501739 C72.4486051,160.382703 71.3436749,159.831945 70.3953557,158.900838 L68.6010593,160.688221 C69.7708346,161.976218 71.4719763,162.738004 73.3186188,162.920359 C75.8503543,163.17016 77.6556541,162.053983 77.8617268,159.896677 L77.8646112,159.866483 C78.0533777,157.890337 76.6390713,156.958796 74.2918291,156.194186 C72.8789115,155.719673 72.5417598,155.473238 72.587803,154.99047 L72.5906874,154.960277 Z" id="Fill-39" fill="#FFFFFF"></path>
            <path d="M85.2109281,160.533344 C83.7460917,160.599596 82.6603907,159.404568 82.5908451,157.814637 L82.5895632,157.784335 C82.5220474,156.239802 83.4984625,154.936383 84.9634058,154.870131 C85.9649257,154.824841 86.6736279,155.278285 87.3046656,156.008356 L89.4122908,154.198491 C88.4286113,152.938189 87.0136639,152.091906 84.8761266,152.188568 C81.7072642,152.331932 79.4663166,154.86079 79.6013482,157.949855 L79.6026302,157.980157 C79.7409734,161.144923 82.2487793,163.352732 85.2383831,163.217514 C87.5552859,163.112814 88.8412909,162.038017 89.7676033,160.615453 L87.5164002,159.139453 C86.9224321,159.94012 86.3020773,160.483927 85.2109281,160.533344" id="Fill-41" fill="#FFFFFF"></path>
            <path d="M94.7683552,157.698848 L95.3566614,154.507474 L97.0735069,157.238888 L94.7683552,157.698848 Z M93.3452889,151.356176 L90.9949486,162.715294 L93.9901075,162.117508 L94.3651834,160.111821 L98.3293862,159.320711 L99.4372007,161.030546 L102.491115,160.421031 L96.0908957,150.808242 L93.3452889,151.356176 Z" id="Fill-43" fill="#FFFFFF"></path>
            <polygon id="Fill-45" fill="#FFFFFF" points="107.304671 147.409336 109.204514 152.674062 103.259279 148.918571 100.71686 149.866947 104.311222 159.827395 107.008114 158.821238 105.036375 153.357323 111.208088 157.254441 113.595926 156.363628 110.001564 146.40318"></polygon>
            <path d="M121.880488,145.677953 C121.171785,144.466416 119.622875,144.08031 118.426927,144.803431 C117.231085,145.526551 116.825242,147.094652 117.533945,148.306188 L117.549221,148.332255 C118.257923,149.543791 119.806727,149.929897 121.002782,149.206776 C122.198731,148.483656 122.604466,146.915664 121.895764,145.704019 L121.880488,145.677953 Z" id="Fill-47" fill="#FFFFFF"></path>
            <polygon id="Fill-49" fill="#FFFFFF" points="132.918647 135.800026 129.169811 139.090779 128.010399 137.725451 132.155676 134.086715 130.499403 132.13631 124.15687 137.70373 130.977034 145.734951 133.174182 143.806159 130.738485 140.937896 134.487321 137.647144"></polygon>
            <path d="M140.844948,132.621402 C139.815439,133.848144 138.108529,133.827074 136.963111,132.833299 L136.940463,132.813641 C135.795045,131.819866 135.509384,130.152062 136.538787,128.925429 C137.578017,127.687174 139.284928,127.708136 140.430346,128.701911 L140.452994,128.721569 C141.598412,129.715344 141.884179,131.383148 140.844948,132.621402 M142.353264,126.410581 L142.330616,126.390923 C140.051211,124.413256 136.671468,124.680761 134.573671,127.180403 C132.475874,129.680046 132.750958,133.158584 135.030471,135.13625 L135.053119,135.155908 C137.332525,137.133574 140.712267,136.86607 142.810064,134.366427 C144.907861,131.866785 144.632777,128.388247 142.353264,126.410581" id="Fill-51" fill="#FFFFFF"></path>
            <path d="M148.97181,116.558471 L144.017625,113.522733 L142.496169,116.089605 L147.52695,119.172153 C148.778236,119.938935 148.971703,120.963337 148.369295,121.979594 C147.766888,122.995851 146.760133,123.28486 145.470496,122.494619 L140.503598,119.451062 L138.982036,122.017933 L143.999998,125.092662 C146.796348,126.806082 149.051397,125.967618 150.588343,123.374789 C152.125289,120.78196 151.857469,118.32663 148.97181,116.558471" id="Fill-53" fill="#FFFFFF"></path>
            <polygon id="Fill-55" fill="#FFFFFF" points="147.287846 105.585068 152.406014 107.676014 145.680928 109.650096 144.670968 112.204912 154.35393 116.160787 155.425209 113.45066 150.113468 111.280647 157.093661 109.23043 158.042087 106.830925 148.359125 102.87505"></polygon>
            <g id="Group-59" transform="translate(148.812507, 92.410199)">
                <mask id="mask-2" fill="white">
                    <use xlink:href="#path-1"></use>
                </mask>
                <g id="Clip-58"></g>
                <path d="M8.58093723,6.6162596 L8.32230472,7.78891391 L3.14367222,6.60843974 L3.40219789,5.43567682 C3.78197425,3.71378543 4.979525,2.78637086 6.6087709,3.15781457 L6.63793516,3.16443974 C8.28160295,3.53914172 8.96060675,4.89436821 8.58093723,6.6162596 M7.24557733,0.200492715 L7.2165199,0.19386755 C4.27808716,-0.475925828 1.70864106,1.19893775 0.890439344,4.90989934 L0.00664475084,8.91769007 L10.1894583,11.238996 L11.060113,7.29050596 C11.8849381,3.54989404 10.1840101,0.870394702 7.24557733,0.200492715" id="Fill-57" fill="#FFFFFF" mask="url(#mask-2)"></path>
            </g>
            <path d="M89.7434921,37.999343 C91.1279932,38.2872662 92.5136695,38.6495868 93.8619557,39.0759868 C95.1954995,39.4976079 96.5239155,39.9919974 97.8104546,40.5451444 C99.0851358,41.0932954 100.349348,41.7124768 101.567944,42.3854199 C102.777673,43.0535841 103.970416,43.7901722 105.113164,44.5750914 C106.250463,45.3562093 107.364367,46.2031444 108.424216,47.0924371 C109.4815,47.979449 110.5093,48.9291285 111.478985,49.9149748 C112.448777,50.9009298 113.382781,51.945751 114.255358,53.0207656 C115.129966,54.0981695 115.963017,55.230747 116.731329,56.3870013 C117.503381,57.5487947 118.228001,58.7614172 118.885105,59.9912 C119.547123,61.230106 120.156153,62.5154967 120.695212,63.8114225 C121.239397,65.1192954 121.725575,66.4698517 122.140391,67.8256212 C122.559801,69.1963788 122.916075,70.6051497 123.199278,72.0127258 C123.504595,73.5297801 124.817521,74.5751444 126.283532,74.5751444 C126.49281,74.5751444 126.705506,74.5537483 126.918523,74.5094358 C128.623724,74.1547179 129.723206,72.4618252 129.374303,70.728204 C129.049223,69.1127497 128.640282,67.4957748 128.158912,65.9224609 C127.682776,64.3664159 127.124702,62.8162358 126.500288,61.3152556 C125.881643,59.8281775 125.182982,58.353698 124.423536,56.9324371 C123.670073,55.5221457 122.839159,54.1317298 121.954082,52.7997457 C121.073492,51.474604 120.11887,50.1767232 119.116709,48.942053 C118.117005,47.7105325 117.046795,46.5134411 115.935882,45.3839046 C114.824863,44.2543682 113.647289,43.1664291 112.436064,42.1501722 C111.221634,41.1310914 109.944923,40.1605589 108.641505,39.2652927 C107.331464,38.3654649 105.963735,37.5208106 104.576563,36.7546808 C103.178708,35.9826861 101.728294,35.2722728 100.265808,34.6434252 C98.7893268,34.0084954 97.2645595,33.4411205 95.7340234,32.9571576 C94.1863947,32.4677642 92.5959277,32.0520079 91.0069562,31.7214013 C89.3014345,31.3667921 87.6366147,32.4845987 87.2877118,34.2181113 C86.9389158,35.9517325 88.0383977,37.6446252 89.7434921,37.999343" id="Fill-60" fill="#FFFFFF"></path>
            <path d="M112.325785,67.4028596 C111.900179,66.3797603 111.419449,65.3651325 110.89695,64.3873232 C110.378296,63.4166821 109.806655,62.4600517 109.198051,61.5442583 C108.592439,60.6328093 107.935762,59.7398238 107.246076,58.8903907 C106.558632,58.0434556 105.822582,57.2200887 105.058115,56.4427722 C104.293648,55.6656728 103.483779,54.917355 102.650835,54.2184543 C101.81522,53.5172728 100.936981,52.8496517 100.04058,52.2340543 C99.1395864,51.6151987 98.1986384,51.0340305 97.2439095,50.5067325 C96.2821299,49.9756331 95.2842421,49.4868914 94.2778081,49.0540834 C93.2615458,48.6171483 92.2124871,48.226698 91.1593688,47.893702 C90.0944994,47.5570132 89.0001453,47.2709364 87.9068595,47.0434 C86.2014446,46.6885735 84.5364111,47.8062715 84.1875082,49.5400013 C83.8384986,51.2735139 84.9378737,52.9665152 86.6430748,53.3212331 C87.532104,53.5061947 88.4218811,53.7388358 89.2874079,54.0124225 C90.1433202,54.2831854 90.9963481,54.6005417 91.822562,54.9558026 C92.6409774,55.3078053 93.4527693,55.7053152 94.2352902,56.1375801 C95.0124697,56.566804 95.7784321,57.039906 96.5122391,57.543853 C97.2425207,58.0454106 97.95806,58.5894344 98.6389867,59.1607192 C99.3179905,59.7303748 99.9781924,60.3405417 100.601325,60.9738424 C101.224457,61.6074689 101.824514,62.2786742 102.384831,62.9689947 C102.946858,63.6612702 103.481856,64.3887351 103.975298,65.1314053 C104.470877,65.8772252 104.93633,66.6559536 105.358411,67.4460861 C105.783589,68.241649 106.174583,69.0669709 106.520815,69.8990265 C106.870252,70.7390106 107.182406,71.6062556 107.448623,72.4762159 C107.717832,73.3563854 107.946659,74.2609921 108.128588,75.1648384 C108.433905,76.6816755 109.746938,77.7270397 111.212735,77.7270397 C111.422227,77.7270397 111.634709,77.7056437 111.847833,77.6613311 C113.553034,77.3066132 114.652409,75.6136119 114.303506,73.8799907 C114.0797,72.7684834 113.798313,71.6558901 113.467143,70.5730556 C113.139606,69.5026026 112.755557,68.4360596 112.325785,67.4028596" id="Fill-62" fill="#FFFFFF"></path>
            <path d="M92.843717,22.6772683 C94.7237969,23.0684789 96.6054793,23.5602617 98.4366316,24.1393664 C100.247166,24.7118458 102.051077,25.3831597 103.798262,26.1345187 C105.529743,26.8790352 107.246375,27.7197796 108.900512,28.6332922 C110.543325,29.540614 112.162743,30.5407968 113.71411,31.6063624 C115.257786,32.6667147 116.770375,33.8165611 118.209359,35.0238617 C119.644924,36.2283385 121.040215,37.5176392 122.356666,38.8560313 C123.673118,40.1944233 124.941282,41.612969 126.125907,43.0723518 C127.313522,44.5354273 128.444519,46.073226 129.487488,47.6427385 C130.535585,49.2198538 131.519372,50.8662617 132.41182,52.5364551 C133.310356,54.2181611 134.137318,55.9634034 134.869736,57.7237425 C135.608671,59.5000472 136.26898,61.3340233 136.832074,63.1748419 C137.401686,65.0364048 137.885406,66.9494485 138.270204,68.860863 C138.57552,70.3777001 139.888553,71.423173 141.354351,71.423173 C141.563735,71.423173 141.776325,71.4018856 141.989448,71.3574644 C143.694649,71.0027465 144.794024,69.3097452 144.445121,67.5762326 C144.018554,65.4570485 143.48206,63.3358008 142.850595,61.2716816 C142.226181,59.2305875 141.494083,57.1969875 140.674706,55.2275756 C139.862914,53.2760842 138.946216,51.3415359 137.950251,49.4776922 C136.961444,47.6269902 135.871256,45.8026803 134.710241,44.0554829 C133.555101,42.3170829 132.302427,40.6140895 130.987151,38.9936392 C129.675293,37.3776419 128.271136,35.8069346 126.813457,34.3249611 C125.355778,32.8429875 123.81082,31.4154273 122.221207,30.0815968 C120.627429,28.7445081 118.952353,27.4709558 117.242558,26.2965637 C115.523897,25.1161981 113.729494,24.0078405 111.909238,23.0025531 C110.075842,21.9899889 108.173008,21.0580127 106.253615,20.2327995 C104.316381,19.3996577 102.316119,18.6553584 100.308486,18.0205372 C98.2782045,17.3785478 96.1917314,16.8331121 94.107288,16.3994352 C92.4021936,16.0445001 90.7369464,17.162524 90.3880436,18.8960366 C90.0391408,20.6295491 91.1385159,22.3225505 92.843717,22.6772683" id="Fill-64" fill="#FFFFFF"></path>
        </g>
    </g>
</svg>